<svg xmlns="http://www.w3.org/2000/svg" xmlns:xlink="http://www.w3.org/1999/xlink" viewBox="0 0 62.012 7.938" height="30.002" width="234.376" xmlns:v="https://vecta.io/nano"><path d="M0 0h31.006v7.938H0z" fill="#bbdefb"/><path d="M31.006 0h31.006v7.938H31.006z" fill="#64b5f6"/><g fill="#1a1a1a"><path d="M5.2 2.8H4.117v.917q.215-.128.45-.128.353 0 .568.257.215.257.215.7 0 .307-.124.545-.12.238-.34.37-.22.133-.513.133-.26 0-.463-.1-.197-.1-.376-.298l.243-.22q.133.142.27.215.137.07.316.07.266 0 .412-.183.147-.188.147-.536 0-.655-.495-.655-.1 0-.202.032-.092.027-.206.092H3.72V2.48h1.52zm1.806-.32v3.066h-.408V2.9l-.637.43-.188-.275.87-.587zm1.7-.05q.26 0 .45.1.192.105.293.293.1.183.1.417 0 .28-.1.532-.105.247-.344.555-.238.307-.733.87h1.256l-.05.34H7.9v-.32q.532-.614.774-.93.247-.316.344-.54.096-.23.096-.48 0-.243-.124-.376-.12-.133-.325-.133-.174 0-.302.078-.128.078-.266.247l-.257-.197q.335-.463.857-.463zm2.247-.038v3.153h-.426V2.392zm1.55 0l-1.068 1.44 1.14 1.714h-.5L10.97 3.86l1.077-1.466z"/><use xlink:href="#B"/><path d="M18.6 2.333q.247 0 .43.078.183.073.362.234l-.22.257q-.133-.115-.266-.17-.128-.055-.284-.055-.357 0-.568.307-.2.302-.2.98 0 .66.2.976.2.312.568.312.18 0 .307-.064.128-.064.28-.188l.215.252q-.344.353-.825.353-.353 0-.628-.183-.27-.183-.426-.55-.15-.37-.15-.907 0-.532.156-.898.16-.367.43-.55.275-.183.62-.183zm2.05.06v2.8h1.15l-.046.362h-1.53V2.392zm3.8 2.228q0 .435-.26.7-.26.275-.747.275-.5 0-.747-.27-.257-.275-.257-.715V2.392h.426v2.2q0 .664.577.664.577 0 .577-.664v-2.2h.43z"/><use xlink:href="#B" x="12.236"/><path d="M36.576 3.836q.302.064.486.238.188.174.188.518 0 .926-1.28.926h-.94V2.342h.83q.6 0 .94.202.33.197.33.6 0 .275-.156.45-.156.17-.4.234zm-.8-.976v.756h.202q.422 0 .422-.4 0-.188-.1-.275-.1-.092-.348-.092zm.2 2.126q.257 0 .4-.096.133-.096.133-.335 0-.45-.486-.45h-.247v.88zm2.69-2.644v2.594h1.104l-.078.582h-1.76V2.342zm3.883 2.195q0 .302-.128.545-.128.238-.385.376-.257.137-.628.137-.56 0-.852-.3-.3-.3-.3-.77V2.342H41V4.5q0 .275.096.408.096.128.312.128.215 0 .307-.128.096-.133.096-.408V2.342h.738zm2.6-2.195l-.078.522h-.985v.784h.862v.513h-.862v.825h1.054v.532h-1.787V2.342zm4.007 0l-.078.56h-.683V5.52h-.733V2.9h-.724v-.56zm2.383 0l-.078.522h-.985v.784h.862v.513h-.862v.825h1.054v.532h-1.787V2.342zm2.248 3.176l-.142-.692h-.807l-.142.692h-.742l.857-3.176h.88l.852 3.176zm-.84-1.22h.587l-.293-1.42zm5.048 1.22h-.7l-.04-1.256q-.018-.55-.018-.8 0-.32.01-.472l-.417 2.204h-.687L55.7 2.98q.018.348.018.738 0 .174-.01.56l-.04 1.242h-.697l.2-3.176h.917l.4 2.163.367-2.163h.92z"/></g><defs ><path id="B" d="M14.547 3.877q.687.12.687.78 0 .45-.302.67-.302.22-.834.22h-.807V2.392h.683q.545 0 .84.202.293.202.293.59 0 .28-.156.458-.15.174-.403.234zm-.83-1.16v1.017h.394q.266 0 .412-.133.15-.137.15-.38 0-.266-.165-.385-.16-.12-.495-.12zm.385 2.493q.335 0 .513-.128.18-.133.18-.435 0-.596-.646-.596h-.43v1.16z"/></defs></svg>